<?xml version="1.0" encoding="UTF-8"?>
<svg width="96px" height="96px" viewBox="0 0 96 96" version="1.1" xmlns="http://www.w3.org/2000/svg" xmlns:xlink="http://www.w3.org/1999/xlink">
    <!-- Generator: Sketch 55.2 (78181) - https://sketchapp.com -->
    <title>logo_web-scraper</title>
    <desc>Created with Sketch.</desc>
    <defs>
        <linearGradient x1="100%" y1="88.9273356%" x2="0%" y2="11.0726644%" id="linearGradient-1">
            <stop stop-color="#12ACF1" offset="0%"></stop>
            <stop stop-color="#12ACF1" stop-opacity="0.5" offset="100%"></stop>
        </linearGradient>
        <rect id="path-2" x="0" y="0" width="58.2857143" height="51.4285714" rx="4"></rect>
        <linearGradient x1="-1.11022302e-14%" y1="49.6107266%" x2="98.8202069%" y2="50.3800881%" id="linearGradient-4">
            <stop stop-color="#FFFFFF" stop-opacity="0.1" offset="0%"></stop>
            <stop stop-color="#FFFFFF" stop-opacity="0.4" offset="100%"></stop>
        </linearGradient>
        <linearGradient x1="18.8867188%" y1="-0.753015347%" x2="67.1020508%" y2="85.6625938%" id="linearGradient-5">
            <stop stop-color="#FFFFFF" stop-opacity="0.4" offset="0%"></stop>
            <stop stop-color="#FFFFFF" stop-opacity="0.9" offset="100%"></stop>
        </linearGradient>
    </defs>
    <g id="Design" stroke="none" stroke-width="1" fill="none" fill-rule="evenodd">
        <g id="logo_web-scraper">
            <rect id="Rectangle" fill="#FFFFFF" fill-rule="nonzero" x="0" y="0" width="96" height="96"></rect>
            <g id="icon_ip-address" transform="translate(18.857143, 22.285714)">
                <mask id="mask-3" fill="white">
                    <use xlink:href="#path-2"></use>
                </mask>
                <use id="Rectangle" fill="url(#linearGradient-1)" xlink:href="#path-2"></use>
                <path d="M0,0 L58.2857143,0 L58.2857143,1.14285714 C58.2857143,3.35199614 56.4948533,5.14285714 54.2857143,5.14285714 L4,5.14285714 C1.790861,5.14285714 -3.72626139e-15,3.35199614 0,1.14285714 L0,0 Z" id="Rectangle" fill="url(#linearGradient-4)" mask="url(#mask-3)" transform="translate(29.142857, 2.571429) scale(-1, -1) translate(-29.142857, -2.571429) "></path>
            </g>
            <g id="spider-solid" transform="translate(30.857143, 32.571429)" fill="url(#linearGradient-5)">
                <path d="M8.99821429,9.83863636 L10.5416667,10.3441558 L10.8196429,10.3441558 L11.1303571,8.81766234 C11.1732143,8.60844156 11.2375,8.37467532 11.3214286,8.12863636 L10.1136905,5.75707792 L11.5303571,1.58493506 C11.6964286,1.09519481 11.427381,0.565714286 10.9279762,0.402077922 L10.025,0.106363636 C9.52619048,-0.0572727273 8.98630952,0.207467532 8.8202381,0.697792208 L7.27916667,5.23753247 C7.1195685,5.70805222 7.15660267,6.22151751 7.38214286,6.66525974 L8.99821429,9.83863636 Z M34.1255952,20.4767532 L30.9857143,15.8528571 C30.6325025,15.332693 30.0379346,15.0202007 29.4011905,15.0200649 L24.7619048,15.0200649 L28.8684524,13.5964286 C29.2703271,13.4648019 29.6161027,13.2055073 29.8511905,12.8594805 L33.0416667,8.16019481 C33.3333333,7.73064935 33.214881,7.14974026 32.777381,6.86337662 L31.985119,6.34441558 C31.547619,6.05805195 30.9559524,6.17435065 30.6642857,6.6038961 L27.6547619,11.0355195 L24.0535714,12.2142857 L21.9047619,12.2142857 L21.2875,9.18409091 C21.1571429,8.54298701 20.2535714,5.66883117 17.1428571,5.66883117 C14.0321429,5.66883117 13.1285714,8.54298701 12.9982143,9.18409091 L12.3809524,12.2142857 L10.2321429,12.2142857 L6.63154762,11.0355195 L3.62142857,6.6038961 C3.3297619,6.17435065 2.73869048,6.05805195 2.30059524,6.34441558 L1.50833333,6.86337662 C1.07083333,7.14974026 0.952380952,7.73006494 1.24404762,8.16019481 L4.43452381,12.8594805 C4.66961161,13.2055073 5.0153872,13.4648019 5.4172619,13.5964286 L9.52380952,15.0194805 L4.88452381,15.0194805 C4.24761681,15.0196091 3.65286626,15.33208 3.29940476,15.8522727 L0.160119048,20.4767532 C-0.131547619,20.9062987 -0.0136904762,21.4872078 0.424404762,21.7735714 L1.21666667,22.2925325 C1.65416667,22.5788961 2.24583333,22.4625974 2.5375,22.0330519 L5.39464286,17.8252597 L8.19583333,17.8252597 L4.575,23.5133766 C4.38584475,23.8106093 4.28560313,24.1540634 4.28571429,24.5045455 L4.28571429,29.0454545 C4.28571429,29.5620779 4.71190476,29.9805195 5.23809524,29.9805195 L6.19047619,29.9805195 C6.71666667,29.9805195 7.14285714,29.5620779 7.14285714,29.0454545 L7.14285714,24.7727922 L11.552381,17.8457143 C11.4922619,18.6668182 11.4285714,19.4885065 11.4285714,20.3125325 C11.4285714,23.414026 13.8547619,26.2402597 17.1428571,26.2402597 C20.4309524,26.2402597 22.8571429,23.414026 22.8571429,20.3125325 C22.8571429,19.4885065 22.7928571,18.6668182 22.7333333,17.8457143 L27.1428571,24.7727922 L27.1428571,29.0454545 C27.1428571,29.5620779 27.5690476,29.9805195 28.0952381,29.9805195 L29.047619,29.9805195 C29.5738095,29.9805195 30,29.5620779 30,29.0454545 L30,24.503961 C30,24.1533117 29.8994048,23.8096753 29.7107143,23.5127922 L26.089881,17.8246753 L28.8910714,17.8246753 L31.7482143,22.0324675 C32.039881,22.462013 32.6315476,22.5783117 33.0690476,22.2919481 L33.8613095,21.772987 C34.2994048,21.4866234 34.4172619,20.9062987 34.1255952,20.4767532 L34.1255952,20.4767532 Z M24.1720238,5.75707792 L22.9642857,8.12863636 C23.0482143,8.37467532 23.1125,8.60844156 23.1553571,8.81766234 L23.4660714,10.3441558 L23.7440476,10.3441558 L25.2875,9.83863636 L26.9035714,6.66525974 C27.1294006,6.22159511 27.1664431,5.70801539 27.0065476,5.23753247 L25.4654762,0.697792208 C25.2994048,0.208051948 24.7595238,-0.0572727273 24.2607143,0.106363636 L23.3577381,0.402077922 C22.8589286,0.565714286 22.5892857,1.09519481 22.7553571,1.58493506 L24.1720238,5.75707792 Z" id="Shape"></path>
            </g>
        </g>
    </g>
</svg>