<?xml version="1.0" encoding="UTF-8"?>
<svg width="96px" height="96px" viewBox="0 0 96 96" version="1.1" xmlns="http://www.w3.org/2000/svg" xmlns:xlink="http://www.w3.org/1999/xlink">
    <!-- Generator: Sketch 55.2 (78181) - https://sketchapp.com -->
    <title>logo_cheerio-scraper</title>
    <desc>Created with Sketch.</desc>
    <defs>
        <linearGradient x1="100%" y1="89.507601%" x2="0%" y2="10.492399%" id="linearGradient-1">
            <stop stop-color="#12ACF1" offset="0%"></stop>
            <stop stop-color="#12ACF1" stop-opacity="0.5" offset="100%"></stop>
        </linearGradient>
        <linearGradient x1="31.8971302%" y1="0%" x2="59.1837199%" y2="135.384115%" id="linearGradient-2">
            <stop stop-color="#12ACF1" offset="0%"></stop>
            <stop stop-color="#12ACF1" stop-opacity="0.25590035" offset="100%"></stop>
        </linearGradient>
    </defs>
    <g id="Design" stroke="none" stroke-width="1" fill="none" fill-rule="evenodd">
        <g id="logo_cheerio-scraper">
            <rect id="Rectangle" fill="#FFFFFF" fill-rule="nonzero" x="0" y="0" width="96" height="96"></rect>
            <g id="Logo" transform="translate(13.000000, 29.000000)">
                <g id="spider-solid" transform="translate(14.428571, 0.142857)" fill="url(#linearGradient-1)">
                    <path d="M10.7978571,12.025 L12.65,12.6428571 L12.9835714,12.6428571 L13.3564286,10.7771429 C13.4078571,10.5214286 13.485,10.2357143 13.5857143,9.935 L12.1364286,7.03642857 L13.8364286,1.93714286 C14.0357143,1.33857143 13.7128571,0.691428571 13.1135714,0.491428571 L12.03,0.13 C11.4314286,-0.07 10.7835714,0.253571429 10.5842857,0.852857143 L8.735,6.40142857 C8.5434822,6.97650827 8.58792321,7.60407696 8.85857143,8.14642857 L10.7978571,12.025 Z M40.9507143,25.0271429 L37.1828571,19.3757143 C36.7590031,18.7399582 36.0455216,18.3580231 35.2814286,18.3578571 L29.7142857,18.3578571 L34.6421429,16.6178571 C35.1243925,16.4569801 35.5393232,16.1400645 35.8214286,15.7171429 L39.65,9.97357143 C40,9.44857143 39.8578571,8.73857143 39.3328571,8.38857143 L38.3821429,7.75428571 C37.8571429,7.40428571 37.1471429,7.54642857 36.7971429,8.07142857 L33.1857143,13.4878571 L28.8642857,14.9285714 L26.2857143,14.9285714 L25.545,11.225 C25.3885714,10.4414286 24.3042857,6.92857143 20.5714286,6.92857143 C16.8385714,6.92857143 15.7542857,10.4414286 15.5978571,11.225 L14.8571429,14.9285714 L12.2785714,14.9285714 L7.95785714,13.4878571 L4.34571429,8.07142857 C3.99571429,7.54642857 3.28642857,7.40428571 2.76071429,7.75428571 L1.81,8.38857143 C1.285,8.73857143 1.14285714,9.44785714 1.49285714,9.97357143 L5.32142857,15.7171429 C5.60353393,16.1400645 6.01846464,16.4569801 6.50071429,16.6178571 L11.4285714,18.3571429 L5.86142857,18.3571429 C5.09714017,18.3573 4.38343951,18.7392089 3.95928571,19.375 L0.192142857,25.0271429 C-0.157857143,25.5521429 -0.0164285714,26.2621429 0.509285714,26.6121429 L1.46,27.2464286 C1.985,27.5964286 2.695,27.4542857 3.045,26.9292857 L6.47357143,21.7864286 L9.835,21.7864286 L5.49,28.7385714 C5.2630137,29.1018558 5.14272376,29.521633 5.14285714,29.95 L5.14285714,35.5 C5.14285714,36.1314286 5.65428571,36.6428571 6.28571429,36.6428571 L7.42857143,36.6428571 C8.06,36.6428571 8.57142857,36.1314286 8.57142857,35.5 L8.57142857,30.2778571 L13.8628571,21.8114286 C13.7907143,22.815 13.7142857,23.8192857 13.7142857,24.8264286 C13.7142857,28.6171429 16.6257143,32.0714286 20.5714286,32.0714286 C24.5171429,32.0714286 27.4285714,28.6171429 27.4285714,24.8264286 C27.4285714,23.8192857 27.3514286,22.815 27.28,21.8114286 L32.5714286,30.2778571 L32.5714286,35.5 C32.5714286,36.1314286 33.0828571,36.6428571 33.7142857,36.6428571 L34.8571429,36.6428571 C35.4885714,36.6428571 36,36.1314286 36,35.5 L36,29.9492857 C36,29.5207143 35.8792857,29.1007143 35.6528571,28.7378571 L31.3078571,21.7857143 L34.6692857,21.7857143 L38.0978571,26.9285714 C38.4478571,27.4535714 39.1578571,27.5957143 39.6828571,27.2457143 L40.6335714,26.6114286 C41.1592857,26.2614286 41.3007143,25.5521429 40.9507143,25.0271429 L40.9507143,25.0271429 Z M29.0064286,7.03642857 L27.5571429,9.935 C27.6578571,10.2357143 27.735,10.5214286 27.7864286,10.7771429 L28.1592857,12.6428571 L28.4928571,12.6428571 L30.345,12.025 L32.2842857,8.14642857 C32.5552808,7.6041718 32.5997317,6.97646325 32.4078571,6.40142857 L30.5585714,0.852857143 C30.3592857,0.254285714 29.7114286,-0.07 29.1128571,0.13 L28.0292857,0.491428571 C27.4307143,0.691428571 27.1071429,1.33857143 27.3064286,1.93714286 L29.0064286,7.03642857 Z" id="Shape"></path>
                </g>
                <path d="M59.2879138,30.0490854 C58.7627381,30.8368488 58.9756076,31.9011963 59.7633711,32.4263719 C60.5511346,32.9515476 61.615482,32.7386781 62.1406576,31.9509146 L68.9978005,21.6652003 C69.3816855,21.0893728 69.3816855,20.3391987 68.9978005,19.7633711 L62.1406576,9.47765681 C61.615482,8.68989334 60.5511346,8.47702385 59.7633711,9.0021995 C58.9756076,9.52737514 58.7627381,10.5917226 59.2879138,11.3794861 L65.5111136,20.7142857 L59.2879138,30.0490854 Z" id="Path-2" fill="url(#linearGradient-2)" fill-rule="nonzero"></path>
                <path d="M1.0021995,30.0490854 C0.477023851,30.8368488 0.68989334,31.9011963 1.47765681,32.4263719 C2.26542027,32.9515476 3.32976772,32.7386781 3.85494336,31.9509146 L10.7120862,21.6652003 C11.0959713,21.0893728 11.0959713,20.3391987 10.7120862,19.7633711 L3.85494336,9.47765681 C3.32976772,8.68989334 2.26542027,8.47702385 1.47765681,9.0021995 C0.68989334,9.52737514 0.477023851,10.5917226 1.0021995,11.3794861 L7.22539927,20.7142857 L1.0021995,30.0490854 Z" id="Path-2" fill="url(#linearGradient-2)" fill-rule="nonzero" transform="translate(5.857052, 20.714286) scale(-1, 1) translate(-5.857052, -20.714286) "></path>
            </g>
        </g>
    </g>
</svg>